Coordinates
version=1
nRows=8
nColumns=36
inDegrees=yes

Units are S.I. units (second, meters, Newtons, ...)
If the header above contains a line with 'inDegrees', this indicates whether rotational values are in degrees (yes) or radians (no).

endheader
time	pelvis_tilt	pelvis_list	pelvis_rotation	pelvis_tx	pelvis_ty	pelvis_tz	hip_flexion_r	hip_adduction_r	hip_rotation_r	knee_angle_r	knee_angle_r_beta	ankle_angle_r	subtalar_angle_r	mtp_angle_r	hip_flexion_l	hip_adduction_l	hip_rotation_l	knee_angle_l	knee_angle_l_beta	ankle_angle_l	subtalar_angle_l	mtp_angle_l	lumbar_extension	lumbar_bending	lumbar_rotation	arm_flex_r	arm_add_r	arm_rot_r	elbow_flex_r	pro_sup_r	arm_flex_l	arm_add_l	arm_rot_l	elbow_flex_l	pro_sup_l
      1.17000000	     -5.59469376	      1.09461390	      2.86894007	      1.11514114	      0.93414188	     -0.25262605	     31.06528733	     -3.31862090	     -6.62957476	      5.01064047	      0.08745217	      3.54715023	     -1.20391203	     -7.35246458	     -6.49810183	      4.43207389	     -3.88161880	      5.20381951	      0.09082378	     16.63160440	     12.70219860	     -7.35246458	     -8.00745651	     -7.99610272	     -8.75529948	     -1.42993875	     -9.89824645	     11.77836337	     36.88325208	    104.58081016	      5.88376908	    -14.02024581	     -0.39056750	     40.95395299	     98.49788757
      1.18000000	     -5.58799732	      1.06396832	      3.18326447	      1.12597503	      0.93220488	     -0.25381937	     31.12525084	     -3.36432840	     -7.76102973	      3.61091787	      0.06302241	      4.31290679	      0.72105555	     -7.35864655	     -7.18189584	      4.28596493	     -3.93360461	      5.34640450	      0.09331236	     17.22918300	     13.76516526	     -7.35864655	     -7.97226275	     -7.37060947	     -9.04629793	     -1.74315147	     -9.88034119	     10.82583059	     36.85370563	    104.62895360	      5.86934585	    -13.92283242	     -0.24748569	     41.09490191	     98.52115272
      1.19000000	     -5.83476600	      1.07779354	      3.42375179	      1.13687241	      0.92988976	     -0.25474881	     31.47093775	     -3.35656293	     -8.11953692	      2.51818760	      0.04395066	      4.47366845	      0.94541223	     -7.35976708	     -7.60106434	      4.22487801	     -3.62264681	      5.51736714	      0.09629622	     17.39384599	     13.95698741	     -7.35976708	     -7.59972151	     -6.85592501	     -9.28868392	     -2.05202065	     -9.98397859	     10.62374560	     36.70665517	    104.62851008	      5.72742198	    -13.82446135	     -0.17651264	     41.13266962	     98.52913577
      1.20000000	     -5.98996366	      1.00103761	      3.74140450	      1.14794327	      0.92763729	     -0.25571575	     31.72187876	     -3.30406562	     -8.51125981	      1.87077970	      0.03265127	      4.58691157	      1.02473210	     -7.36105912	     -8.09359095	      4.04445134	     -3.27044314	      5.73723968	      0.10013372	     17.65473747	     14.18026899	     -7.36105912	     -7.32179090	     -6.22123684	     -9.62138260	     -2.29950334	    -10.08387974	     10.28016456	     36.50879923	    104.61403137	      5.58102641	    -13.71999437	     -0.12478949	     41.18547219	     98.53184485
      1.21000000	     -6.12732202	      0.91333946	      4.06340776	      1.15923319	      0.92537351	     -0.25665388	     31.96626214	     -3.25032025	     -8.81489679	      1.64331526	      0.02868126	      4.74681672	      0.84639533	     -7.36212220	     -8.59788929	      3.84167497	     -2.96789776	      5.97989051	      0.10436878	     17.83713897	     14.37893711	     -7.36212220	     -7.06368653	     -5.55561894	     -9.91013236	     -2.58670351	    -10.18570854	      9.93954572	     36.28806252	    104.59367432	      5.39522153	    -13.56124225	     -0.11205781	     41.23555715	     98.52905957
      1.22000000	     -6.18925222	      0.98108205	      4.29601530	      1.17082151	      0.92314611	     -0.25749676	     32.11367360	     -3.30739229	     -8.72284178	      1.76716528	      0.03084285	      4.74418998	      0.77978214	     -7.36231462	     -9.21881542	      3.82334156	     -2.87047334	      6.19503004	      0.10812367	     17.83856692	     14.43225071	     -7.36231462	     -6.85624484	     -5.08647253	    -10.08337095	     -2.91187951	    -10.35798648	      9.83663682	     36.11094138	    104.57757563	      5.20276996	    -13.38479456	     -0.07946429	     41.22899562	     98.52978914
      1.23000000	     -6.33550117	      0.62150878	      4.73062414	      1.18257733	      0.92074735	     -0.25834247	     32.28806746	     -2.98834186	     -8.68133368	      2.16781224	      0.03783546	      4.42379050	     -0.73241496	     -7.36764717	     -9.62552185	      3.26870500	     -2.61790298	      6.62504867	      0.11562891	     18.41460505	     15.06659089	     -7.36764717	     -6.53950222	     -4.08594226	    -10.55584519	     -3.18095469	    -10.17250419	      8.29986217	     35.87112587	    104.57971502	      4.79120747	    -13.04420534	     -0.69006329	     41.47075774	     98.45640369
      1.24000000	     -6.35846874	      0.47181713	      5.01864984	      1.19463046	      0.91850113	     -0.25913386	     32.35053319	     -2.83432181	     -8.39498268	      2.93552261	      0.05123453	      4.37647983	     -1.00375465	     -7.36819158	    -10.26951280	      2.98563317	     -2.41182621	      6.87970354	      0.12007348	     18.34700575	     15.15453668	     -7.36819158	     -6.34311837	     -3.31818313	    -10.78967605	     -3.45043179	    -10.39834510	      8.14452422	     35.70217072	    104.57388671	      4.52628360	    -12.77954911	     -0.66213049	     41.41133065	     98.45313324
